<svg width="22" height="18" viewBox="0 0 22 18" fill="none" xmlns="http://www.w3.org/2000/svg">
<path d="M4.18549 11.289H11.5101L13.6029 9.17784H4.18549V11.289ZM4.18549 7.06673H10.4637V4.95562H4.18549V7.06673ZM2.09275 2.84451V13.4001H9.41736L7.32461 15.5112H0V0.733398H20.9275V3.90007H18.8347V2.84451H2.09275ZM21.8692 8.43895C21.9564 8.52692 22 8.62368 22 8.72923C22 8.83479 21.9564 8.93155 21.8692 9.01951L20.9275 9.96951L19.0963 8.12229L20.038 7.17229C20.1252 7.08432 20.2212 7.04034 20.3258 7.04034C20.4304 7.04034 20.5264 7.08432 20.6136 7.17229L21.8692 8.43895ZM11.5101 17.6223V15.7751L18.4685 8.75562L20.2996 10.6028L13.3413 17.6223H11.5101Z" fill="black"/>
</svg>
