<svg width="14" height="18" viewBox="0 0 14 18" fill="none" xmlns="http://www.w3.org/2000/svg">
<path d="M2 16.7778C1.45 16.7778 0.979167 16.6125 0.5875 16.2817C0.195833 15.951 0 15.5534 0 15.089V5.80007C0 5.33562 0.195833 4.93803 0.5875 4.60729C0.979167 4.27655 1.45 4.11118 2 4.11118H4V2.00007C4 1.64821 4.14583 1.34914 4.4375 1.10284C4.72917 0.856547 5.08333 0.733398 5.5 0.733398H8.5C8.91667 0.733398 9.27083 0.856547 9.5625 1.10284C9.85417 1.34914 10 1.64821 10 2.00007V4.11118H12C12.55 4.11118 13.0208 4.27655 13.4125 4.60729C13.8042 4.93803 14 5.33562 14 5.80007V15.089C14 15.5534 13.8042 15.951 13.4125 16.2817C13.0208 16.6125 12.55 16.7778 12 16.7778C12 17.0171 11.9042 17.2177 11.7125 17.3795C11.5208 17.5414 11.2833 17.6223 11 17.6223C10.7167 17.6223 10.4792 17.5414 10.2875 17.3795C10.0958 17.2177 10 17.0171 10 16.7778H4C4 17.0171 3.90417 17.2177 3.7125 17.3795C3.52083 17.5414 3.28333 17.6223 3 17.6223C2.71667 17.6223 2.47917 17.5414 2.2875 17.3795C2.09583 17.2177 2 17.0171 2 16.7778ZM2 15.089H12V5.80007H2V15.089ZM3 14.2445H4.5V6.64451H3V14.2445ZM6.25 14.2445H7.75V6.64451H6.25V14.2445ZM9.5 14.2445H11V6.64451H9.5V14.2445ZM5.5 4.11118H8.5V2.00007H5.5V4.11118Z" fill="black"/>
</svg>
