<svg width="22" height="19" viewBox="0 0 22 19" fill="none" xmlns="http://www.w3.org/2000/svg">
<path d="M7.6 18.4667L5.7 15.7645L2.1 15.089L2.45 11.9645L0 9.60007L2.45 7.23562L2.1 4.11118L5.7 3.43562L7.6 0.733398L11 1.95784L14.4 0.733398L16.3 3.43562L19.9 4.11118L19.55 7.23562L22 9.60007L19.55 11.9645L19.9 15.089L16.3 15.7645L14.4 18.4667L11 17.2423L7.6 18.4667ZM8.45 16.3134L11 15.3845L13.6 16.3134L15 14.2867L17.75 13.7378L17.5 11.3734L19.35 9.60007L17.5 7.78451L17.75 5.42007L15 4.9134L13.55 2.88673L11 3.81562L8.4 2.88673L7 4.9134L4.25 5.42007L4.5 7.78451L2.65 9.60007L4.5 11.3734L4.25 13.7801L7 14.2867L8.45 16.3134ZM9.95 12.5978L15.6 7.82673L14.2 6.60229L9.95 10.1912L7.8 8.41784L6.4 9.60007L9.95 12.5978Z" fill="black"/>
</svg>
