<svg width="20" height="18" viewBox="0 0 20 18" fill="none" xmlns="http://www.w3.org/2000/svg">
<path d="M4 10.8667H12V9.17784H4V10.8667ZM4 8.3334H16V6.64451H4V8.3334ZM4 5.80007H16V4.11118H4V5.80007ZM10 17.6223L7.325 14.2445H2C1.45 14.2445 0.979167 14.0791 0.5875 13.7484C0.195833 13.4177 0 13.0201 0 12.5556V2.42229C0 1.95784 0.195833 1.56025 0.5875 1.22951C0.979167 0.898769 1.45 0.733398 2 0.733398H18C18.55 0.733398 19.0208 0.898769 19.4125 1.22951C19.8042 1.56025 20 1.95784 20 2.42229V12.5556C20 13.0201 19.8042 13.4177 19.4125 13.7484C19.0208 14.0791 18.55 14.2445 18 14.2445H12.675L10 17.6223ZM10 14.5823L11.6 12.5556H18V2.42229H2V12.5556H8.4L10 14.5823Z" fill="black"/>
</svg>
