<svg width="12" height="18" viewBox="0 0 12 18" fill="none" xmlns="http://www.w3.org/2000/svg">
<path d="M6 17.6223C4.23333 17.6223 2.79167 17.3865 1.675 16.9151C0.558333 16.4436 0 15.8349 0 15.089C0 14.5964 0.241667 14.1671 0.725 13.8012C1.20833 13.4353 1.875 13.1467 2.725 12.9356L3.3 14.5401C3.01667 14.6104 2.75833 14.6984 2.525 14.804C2.29167 14.9095 2.13333 15.0045 2.05 15.089C2.26667 15.3141 2.76667 15.5112 3.55 15.6801C4.33333 15.849 5.15 15.9334 6 15.9334C6.85 15.9334 7.67083 15.849 8.4625 15.6801C9.25417 15.5112 9.75833 15.3141 9.975 15.089C9.89167 15.0045 9.73333 14.9095 9.5 14.804C9.26667 14.6984 9.00833 14.6104 8.725 14.5401L9.3 12.9356C10.15 13.1467 10.8125 13.4353 11.2875 13.8012C11.7625 14.1671 12 14.5964 12 15.089C12 15.8349 11.4417 16.4436 10.325 16.9151C9.20833 17.3865 7.76667 17.6223 6 17.6223ZM6 11.9856C6.3 11.5212 6.61667 11.0954 6.95 10.7084C7.28333 10.3214 7.60833 9.95192 7.925 9.60007C8.54167 8.92451 9.03333 8.31581 9.4 7.77395C9.76667 7.2321 9.95 6.56007 9.95 5.75784C9.95 4.82895 9.56667 4.04081 8.8 3.3934C8.03333 2.74599 7.1 2.42229 6 2.42229C4.9 2.42229 3.96667 2.74599 3.2 3.3934C2.43333 4.04081 2.05 4.82895 2.05 5.75784C2.05 6.56007 2.23333 7.2321 2.6 7.77395C2.96667 8.31581 3.45833 8.92451 4.075 9.60007C4.39167 9.95192 4.71667 10.3214 5.05 10.7084C5.38333 11.0954 5.7 11.5212 6 11.9856ZM6 15.089C5.81667 15.089 5.65 15.0432 5.5 14.9517C5.35 14.8603 5.24167 14.7371 5.175 14.5823C4.79167 13.583 4.30833 12.7456 3.725 12.0701C3.14167 11.3945 2.575 10.7471 2.025 10.1278C1.49167 9.50858 1.02917 8.86821 0.6375 8.20673C0.245833 7.54525 0.05 6.72895 0.05 5.75784C0.05 4.35044 0.625 3.16118 1.775 2.19007C2.925 1.21895 4.33333 0.733398 6 0.733398C7.66667 0.733398 9.075 1.21895 10.225 2.19007C11.375 3.16118 11.95 4.35044 11.95 5.75784C11.95 6.72895 11.7583 7.54525 11.375 8.20673C10.9917 8.86821 10.525 9.50858 9.975 10.1278C9.44167 10.7471 8.87917 11.3945 8.2875 12.0701C7.69583 12.7456 7.20833 13.583 6.825 14.5823C6.75833 14.7371 6.65 14.8603 6.5 14.9517C6.35 15.0432 6.18333 15.089 6 15.089ZM6 7.55229C6.58333 7.55229 7.08333 7.37636 7.5 7.02451C7.91667 6.67266 8.125 6.25044 8.125 5.75784C8.125 5.26525 7.91667 4.84303 7.5 4.49118C7.08333 4.13932 6.58333 3.9634 6 3.9634C5.41667 3.9634 4.91667 4.13932 4.5 4.49118C4.08333 4.84303 3.875 5.26525 3.875 5.75784C3.875 6.25044 4.08333 6.67266 4.5 7.02451C4.91667 7.37636 5.41667 7.55229 6 7.55229Z" fill="black"/>
</svg>
